<mxfile host="Electron" agent="Mozilla/5.0 (Macintosh; Intel Mac OS X 10_15_7) AppleWebKit/537.36 (KHTML, like Gecko) draw.io/24.7.5 Chrome/126.0.6478.183 Electron/31.3.0 Safari/537.36" version="24.7.5">
  <diagram id="BnGxPRm8DwID6uCaEvyj" name="Страница — 4">
    <mxGraphModel dx="1781" dy="1843" grid="1" gridSize="10" guides="1" tooltips="1" connect="1" arrows="1" fold="1" page="1" pageScale="1" pageWidth="827" pageHeight="1169" math="0" shadow="0">
      <root>
        <mxCell id="0" />
        <mxCell id="1" parent="0" />
        <mxCell id="p70-gye4ZqWkjD2eKTXU-1" value="&lt;div style=&quot;&quot;&gt;&lt;font style=&quot;font-family: Arial; color: rgb(0, 0, 0); direction: ltr; letter-spacing: 0px; line-height: 120%; opacity: 1;&quot;&gt;&lt;font style=&quot;font-size: 13px;&quot;&gt;Зона доступности 1&lt;/font&gt;&lt;br&gt;&lt;/font&gt;&lt;/div&gt;" style="verticalAlign=bottom;align=center;overflow=width;vsdxID=5;fillColor=#e3ebff;gradientColor=none;shape=stencil(vVNBDsIgEHwNRwxCjHqu+g9iaUtEaBa09fdSwdpi9dBDb8vOwOwsGcQyW/FaIEqsA3MRjcxdhdgBUSp1JUA6XyF2RCwrDIgSzE3n4VzzjtlVV3PvXmjDPdLdoOQRTrvtavNqnAKXw9mDELkBIhDJaxrJZIy/YRLfbjFvpcVgHHfS6JGu4lAK7GVwoXg5gmwjRP3VjoMpqQcm9tPKs0z0Y6crWcBHqt0PN8tJspXFfmNKdpaBH8tYwML/VPjiE6dCKhXSOMTT+PlWiC47PgE=);strokeColor=none;spacingTop=-3;spacingBottom=-3;spacingLeft=-3;spacingRight=-3;points=[];labelBackgroundColor=none;rounded=0;html=1;whiteSpace=wrap;container=0;" vertex="1" parent="1">
          <mxGeometry x="-20" y="254" width="450" height="546" as="geometry" />
        </mxCell>
        <mxCell id="0AfO8lCKWgkxFzGc6HkS-1" style="vsdxID=5;fillColor=none;gradientColor=none;strokeColor=none;spacingTop=-3;spacingBottom=-3;spacingLeft=-3;spacingRight=-3;points=[];labelBackgroundColor=none;rounded=0;html=1;whiteSpace=wrap;" vertex="1" parent="1">
          <mxGeometry x="10" y="320" width="381" height="180" as="geometry" />
        </mxCell>
        <mxCell id="0AfO8lCKWgkxFzGc6HkS-2" style="vsdxID=6;fillColor=none;gradientColor=none;shape=stencil(vVNdD4IgFP01PMpIms1ns//BEpVF4K6U9u/DoFJxPdjm2/04cO65cBDN2po1HMWkNaAvvBOFqRE9ojgWquYgjI0QzRHNSg28An1ThcsbNiCH6Krvww29O0eGEzF5uCwleP8qnByWwdk2wWMpTg8ODm88TlwhQHjAjniCPmK9aCPQhhmh1YRcMqh4ZLmiUrJq0mo7zpug7KeTQo2UpAkmdJF8pZjP7PPlbCAm4PazrZQS7mazZwm+xF9vsryVDWT89okNvgYrhZTOn+P+3JC25MxM8yc=);strokeColor=#5282ff;spacingTop=-3;spacingBottom=-3;spacingLeft=-3;spacingRight=-3;points=[];labelBackgroundColor=none;rounded=0;html=1;whiteSpace=wrap;" vertex="1" parent="0AfO8lCKWgkxFzGc6HkS-1">
          <mxGeometry y="-40" width="381" height="220" as="geometry" />
        </mxCell>
        <mxCell id="0AfO8lCKWgkxFzGc6HkS-3" value="&lt;div style=&quot;&quot;&gt;&lt;font style=&quot;font-size: 13px;&quot; face=&quot;Arial&quot;&gt;Kubernetes 1&lt;/font&gt;&lt;/div&gt;" style="verticalAlign=middle;align=center;overflow=width;vsdxID=7;fillColor=none;gradientColor=none;shape=stencil(nZBLDoAgDERP0z3SIyjew0SURgSD+Lu9kMZoXLhwN9O+tukAlrNpJg1SzDH4QW/URgNYgZTkjA4UkwJUgGXng+6DX1zLfmoymdXo17xh5zmRJ6Q42BWCfc2oJfdAr+Yv+AP9Cb7OJ3H/2JG1HNGz/84klThPVCc=);strokeColor=none;points=[];labelBackgroundColor=none;rounded=0;html=1;whiteSpace=wrap;" vertex="1" parent="0AfO8lCKWgkxFzGc6HkS-1">
          <mxGeometry y="76" width="158.75" height="28" as="geometry" />
        </mxCell>
        <mxCell id="0AfO8lCKWgkxFzGc6HkS-4" value="" style="shape=image;verticalLabelPosition=bottom;verticalAlign=top;imageAspect=0;aspect=fixed;image=data:image/svg+xml,PHN2ZyB4bWxucz0iaHR0cDovL3d3dy53My5vcmcvMjAwMC9zdmciIHdpZHRoPSIzMiIgaGVpZ2h0PSIzMiIgdmlld0JveD0iMCAwIDMyIDMyIiBmaWxsPSJub25lIj4mI3hhOzxwYXRoIGQ9Ik0wIDE2QzAgNy4xNjM0NCA3LjE2MzQ0IDAgMTYgMFYwQzI0LjgzNjYgMCAzMiA3LjE2MzQ0IDMyIDE2VjE2QzMyIDI0LjgzNjYgMjQuODM2NiAzMiAxNiAzMlYzMkM3LjE2MzQ0IDMyIDAgMjQuODM2NiAwIDE2VjE2WiIgZmlsbD0iIzUyODJGRiIvPiYjeGE7PHBhdGggZD0iTTExLjk5NSAyNEw3LjAwMDk4IDE3LjczOEw4Ljc4MTk4IDkuOTI3TDE2IDYuNDUzTDIzLjIxOCA5LjkyOEwyNC45OTkgMTcuNzM5TDIwLjAwNSAyNEgxMS45OTVaTTIwIDEzLjE5NkwxNS45OTkgMTAuODk5TDEyIDEzLjE5NlYxOC4xTDE2IDIwLjQwMUwyMCAxOC4xVjEzLjE5NlpNMTguNzggMTMuODk2SDE4Ljc4N0wxNiAxNS40OTlMMTMuMjE0IDEzLjg5NUgxMy4yMTlMMTUuOTk5IDEyLjI5OUwxOC43OCAxMy44OTZaIiBmaWxsPSJ3aGl0ZSIvPiYjeGE7PC9zdmc+;container=0;" vertex="1" parent="0AfO8lCKWgkxFzGc6HkS-1">
          <mxGeometry x="46.861717171717174" y="38.14999999999998" width="27.69545454545455" height="27.69545454545455" as="geometry" />
        </mxCell>
        <mxCell id="0AfO8lCKWgkxFzGc6HkS-5" value="" style="group" vertex="1" connectable="0" parent="0AfO8lCKWgkxFzGc6HkS-1">
          <mxGeometry x="161" y="90" width="84.37" height="74" as="geometry" />
        </mxCell>
        <mxCell id="0AfO8lCKWgkxFzGc6HkS-6" value="" style="shape=image;verticalLabelPosition=bottom;verticalAlign=top;imageAspect=0;aspect=fixed;image=data:image/svg+xml,PHN2ZyB4bWxucz0iaHR0cDovL3d3dy53My5vcmcvMjAwMC9zdmciIHdpZHRoPSIzMiIgaGVpZ2h0PSIzMiIgdmlld0JveD0iMCAwIDMyIDMyIiBmaWxsPSJub25lIj4mI3hhOzxwYXRoIGQ9Ik0wIDE2QzAgNy4xNjM0NCA3LjE2MzQ0IDAgMTYgMFYwQzI0LjgzNjYgMCAzMiA3LjE2MzQ0IDMyIDE2VjE2QzMyIDI0LjgzNjYgMjQuODM2NiAzMiAxNiAzMlYzMkM3LjE2MzQ0IDMyIDAgMjQuODM2NiAwIDE2VjE2WiIgZmlsbD0iIzUyODJGRiIvPiYjeGE7PHBhdGggZD0iTTExLjk5NSAyNEw3LjAwMDk4IDE3LjczOEw4Ljc4MTk4IDkuOTI3TDE2IDYuNDUzTDIzLjIxOCA5LjkyOEwyNC45OTkgMTcuNzM5TDIwLjAwNSAyNEgxMS45OTVaTTIwIDEzLjE5NkwxNS45OTkgMTAuODk5TDEyIDEzLjE5NlYxOC4xTDE2IDIwLjQwMUwyMCAxOC4xVjEzLjE5NlpNMTguNzggMTMuODk2SDE4Ljc4N0wxNiAxNS40OTlMMTMuMjE0IDEzLjg5NUgxMy4yMTlMMTUuOTk5IDEyLjI5OUwxOC43OCAxMy44OTZaIiBmaWxsPSJ3aGl0ZSIvPiYjeGE7PC9zdmc+;container=0;" vertex="1" parent="0AfO8lCKWgkxFzGc6HkS-5">
          <mxGeometry x="28.788918888888897" y="7.710000000000008" width="17.715485564304466" height="17.715485564304466" as="geometry" />
        </mxCell>
        <mxCell id="0AfO8lCKWgkxFzGc6HkS-7" style="vsdxID=5;fillColor=none;gradientColor=none;shape=stencil(vVPLEoIgFP0aljgEVuPa6j+YRGUica6U9vdhUKk4LWzG3X0cOPdcOIilTclrgShpDOiLaGVmSsQOiFJZlQKksRFiR8TSXIMoQN+qzOU175F9dNX3/obOnSP9CUoeLktIFL8KJ4flcLZN8NhtRJiDwxsf7VwhQHjAhniCDvNONhi04UbqakSuOBQCWy6cK16MWk0rRB2U/XRKVgMlSRwl+1nyhWI+s0+Xs4KYgNvPtlBKuJvVniX4En+9yfxWVpDx2yc2+Bosl0o5fw77U0PakjMzOz4B);strokeColor=#ff5958;spacingTop=-3;spacingBottom=-3;spacingLeft=-3;spacingRight=-3;points=[];labelBackgroundColor=none;rounded=0;html=1;whiteSpace=wrap;" vertex="1" parent="0AfO8lCKWgkxFzGc6HkS-5">
          <mxGeometry width="84.37" height="74" as="geometry" />
        </mxCell>
        <mxCell id="0AfO8lCKWgkxFzGc6HkS-8" value="&lt;div style=&quot;&quot;&gt;&lt;font style=&quot;font-family: Arial; color: rgb(0, 0, 0); direction: ltr; letter-spacing: 0px; line-height: 120%; opacity: 1; font-size: 13px;&quot;&gt;InsureTech 1&lt;/font&gt;&lt;/div&gt;" style="verticalAlign=bottom;align=center;overflow=width;vsdxID=6;fillColor=none;gradientColor=none;strokeColor=none;spacingTop=-3;spacingBottom=-3;spacingLeft=-3;spacingRight=-3;points=[];labelBackgroundColor=none;rounded=0;html=1;whiteSpace=wrap;" vertex="1" parent="0AfO8lCKWgkxFzGc6HkS-5">
          <mxGeometry x="9.374444444444444" y="37" width="65.6211111111111" height="28" as="geometry" />
        </mxCell>
        <mxCell id="0AfO8lCKWgkxFzGc6HkS-10" value="" style="group" vertex="1" connectable="0" parent="0AfO8lCKWgkxFzGc6HkS-1">
          <mxGeometry x="281" y="90" width="84.37" height="74" as="geometry" />
        </mxCell>
        <mxCell id="0AfO8lCKWgkxFzGc6HkS-11" value="" style="shape=image;verticalLabelPosition=bottom;verticalAlign=top;imageAspect=0;aspect=fixed;image=data:image/svg+xml,PHN2ZyB4bWxucz0iaHR0cDovL3d3dy53My5vcmcvMjAwMC9zdmciIHdpZHRoPSIzMiIgaGVpZ2h0PSIzMiIgdmlld0JveD0iMCAwIDMyIDMyIiBmaWxsPSJub25lIj4mI3hhOzxwYXRoIGQ9Ik0wIDE2QzAgNy4xNjM0NCA3LjE2MzQ0IDAgMTYgMFYwQzI0LjgzNjYgMCAzMiA3LjE2MzQ0IDMyIDE2VjE2QzMyIDI0LjgzNjYgMjQuODM2NiAzMiAxNiAzMlYzMkM3LjE2MzQ0IDMyIDAgMjQuODM2NiAwIDE2VjE2WiIgZmlsbD0iIzUyODJGRiIvPiYjeGE7PHBhdGggZD0iTTExLjk5NSAyNEw3LjAwMDk4IDE3LjczOEw4Ljc4MTk4IDkuOTI3TDE2IDYuNDUzTDIzLjIxOCA5LjkyOEwyNC45OTkgMTcuNzM5TDIwLjAwNSAyNEgxMS45OTVaTTIwIDEzLjE5NkwxNS45OTkgMTAuODk5TDEyIDEzLjE5NlYxOC4xTDE2IDIwLjQwMUwyMCAxOC4xVjEzLjE5NlpNMTguNzggMTMuODk2SDE4Ljc4N0wxNiAxNS40OTlMMTMuMjE0IDEzLjg5NUgxMy4yMTlMMTUuOTk5IDEyLjI5OUwxOC43OCAxMy44OTZaIiBmaWxsPSJ3aGl0ZSIvPiYjeGE7PC9zdmc+;container=0;" vertex="1" parent="0AfO8lCKWgkxFzGc6HkS-10">
          <mxGeometry x="28.788918888888897" y="7.710000000000008" width="17.715485564304466" height="17.715485564304466" as="geometry" />
        </mxCell>
        <mxCell id="0AfO8lCKWgkxFzGc6HkS-12" style="vsdxID=5;fillColor=none;gradientColor=none;shape=stencil(vVPLEoIgFP0aljgEVuPa6j+YRGUica6U9vdhUKk4LWzG3X0cOPdcOIilTclrgShpDOiLaGVmSsQOiFJZlQKksRFiR8TSXIMoQN+qzOU175F9dNX3/obOnSP9CUoeLktIFL8KJ4flcLZN8NhtRJiDwxsf7VwhQHjAhniCDvNONhi04UbqakSuOBQCWy6cK16MWk0rRB2U/XRKVgMlSRwl+1nyhWI+s0+Xs4KYgNvPtlBKuJvVniX4En+9yfxWVpDx2yc2+Bosl0o5fw77U0PakjMzOz4B);strokeColor=#ff5958;spacingTop=-3;spacingBottom=-3;spacingLeft=-3;spacingRight=-3;points=[];labelBackgroundColor=none;rounded=0;html=1;whiteSpace=wrap;" vertex="1" parent="0AfO8lCKWgkxFzGc6HkS-10">
          <mxGeometry width="84.37" height="74" as="geometry" />
        </mxCell>
        <mxCell id="0AfO8lCKWgkxFzGc6HkS-13" value="&lt;div style=&quot;&quot;&gt;&lt;font style=&quot;font-family: Arial; color: rgb(0, 0, 0); direction: ltr; letter-spacing: 0px; line-height: 120%; opacity: 1; font-size: 13px;&quot;&gt;InsureTech 2&lt;/font&gt;&lt;/div&gt;" style="verticalAlign=bottom;align=center;overflow=width;vsdxID=6;fillColor=none;gradientColor=none;strokeColor=none;spacingTop=-3;spacingBottom=-3;spacingLeft=-3;spacingRight=-3;points=[];labelBackgroundColor=none;rounded=0;html=1;whiteSpace=wrap;" vertex="1" parent="0AfO8lCKWgkxFzGc6HkS-10">
          <mxGeometry x="9.374444444444444" y="37" width="65.6211111111111" height="28" as="geometry" />
        </mxCell>
        <mxCell id="P6UPo_pjJBD-i2O_0os6-1" value="" style="group" vertex="1" connectable="0" parent="1">
          <mxGeometry x="240" y="290" width="70" height="74" as="geometry" />
        </mxCell>
        <mxCell id="P6UPo_pjJBD-i2O_0os6-2" style="vsdxID=5;fillColor=none;gradientColor=none;shape=stencil(vVPLEoIgFP0aljgEVuPa6j+YRGUica6U9vdhUKk4LWzG3X0cOPdcOIilTclrgShpDOiLaGVmSsQOiFJZlQKksRFiR8TSXIMoQN+qzOU175F9dNX3/obOnSP9CUoeLktIFL8KJ4flcLZN8NhtRJiDwxsf7VwhQHjAhniCDvNONhi04UbqakSuOBQCWy6cK16MWk0rRB2U/XRKVgMlSRwl+1nyhWI+s0+Xs4KYgNvPtlBKuJvVniX4En+9yfxWVpDx2yc2+Bosl0o5fw77U0PakjMzOz4B);strokeColor=#ff5958;spacingTop=-3;spacingBottom=-3;spacingLeft=-3;spacingRight=-3;points=[];labelBackgroundColor=none;rounded=0;html=1;whiteSpace=wrap;" vertex="1" parent="P6UPo_pjJBD-i2O_0os6-1">
          <mxGeometry width="70" height="74" as="geometry" />
        </mxCell>
        <mxCell id="P6UPo_pjJBD-i2O_0os6-3" value="&lt;div style=&quot;&quot;&gt;&lt;font style=&quot;font-family: Arial; color: rgb(0, 0, 0); direction: ltr; letter-spacing: 0px; line-height: 120%; opacity: 1;&quot;&gt;&lt;font style=&quot;font-size: 13px;&quot;&gt;Load balancer&lt;/font&gt;&lt;br&gt;&lt;/font&gt;&lt;/div&gt;" style="verticalAlign=bottom;align=center;overflow=width;vsdxID=6;fillColor=none;gradientColor=none;strokeColor=none;spacingTop=-3;spacingBottom=-3;spacingLeft=-3;spacingRight=-3;points=[];labelBackgroundColor=none;rounded=0;html=1;whiteSpace=wrap;" vertex="1" parent="P6UPo_pjJBD-i2O_0os6-1">
          <mxGeometry y="37" width="70" height="28" as="geometry" />
        </mxCell>
        <mxCell id="P6UPo_pjJBD-i2O_0os6-4" value="" style="shape=image;verticalLabelPosition=bottom;verticalAlign=top;imageAspect=0;aspect=fixed;image=data:image/svg+xml,PHN2ZyB4bWxucz0iaHR0cDovL3d3dy53My5vcmcvMjAwMC9zdmciIHdpZHRoPSIzMiIgaGVpZ2h0PSIzMiIgdmlld0JveD0iMCAwIDMyIDMyIiBmaWxsPSJub25lIj4mI3hhOzxwYXRoIGQ9Ik0wIDE2QzAgNy4xNjM0NCA3LjE2MzQ0IDAgMTYgMFYwQzI0LjgzNjYgMCAzMiA3LjE2MzQ0IDMyIDE2VjE2QzMyIDI0LjgzNjYgMjQuODM2NiAzMiAxNiAzMlYzMkM3LjE2MzQ0IDMyIDAgMjQuODM2NiAwIDE2VjE2WiIgZmlsbD0iIzUyODJGRiIvPiYjeGE7PHBhdGggZD0iTTE3IDE3SDE5LjNDMTkuNyAxNy42IDIwLjMgMTggMjEgMThDMjIuMSAxOCAyMyAxNy4xIDIzIDE2QzIzIDE0LjkgMjIuMSAxNCAyMSAxNEMyMC4zIDE0IDE5LjYgMTQuNCAxOS4zIDE1SDE3VjExSDE5LjNDMTkuNyAxMS42IDIwLjMgMTIgMjEgMTJDMjIuMSAxMiAyMyAxMS4xIDIzIDEwQzIzIDguOSAyMi4xIDggMjEgOEMyMC4zIDggMTkuNiA4LjQgMTkuMyA5SDE3QzE1LjkgOSAxNSA5LjkgMTUgMTFWMTUuM0wxMCAxMlYxNUg3VjE3SDEwVjIwTDE1IDE2LjdWMjFDMTUgMjIuMSAxNS45IDIzIDE3IDIzSDE5LjNDMTkuNyAyMy42IDIwLjMgMjQgMjEgMjRDMjIuMSAyNCAyMyAyMy4xIDIzIDIyQzIzIDIwLjkgMjIuMSAyMCAyMSAyMEMyMC4zIDIwIDE5LjYgMjAuNCAxOS4zIDIxSDE3VjE3WiIgZmlsbD0id2hpdGUiLz4mI3hhOzwvc3ZnPg==;" vertex="1" parent="P6UPo_pjJBD-i2O_0os6-1">
          <mxGeometry x="19" y="5" width="32" height="32" as="geometry" />
        </mxCell>
        <mxCell id="P6UPo_pjJBD-i2O_0os6-10" value="" style="endArrow=classic;html=1;rounded=0;exitX=0.514;exitY=1.014;exitDx=0;exitDy=0;exitPerimeter=0;entryX=0.45;entryY=0.014;entryDx=0;entryDy=0;entryPerimeter=0;" edge="1" parent="1" source="P6UPo_pjJBD-i2O_0os6-2" target="0AfO8lCKWgkxFzGc6HkS-12">
          <mxGeometry width="50" height="50" relative="1" as="geometry">
            <mxPoint x="350" y="410" as="sourcePoint" />
            <mxPoint x="400" y="360" as="targetPoint" />
          </mxGeometry>
        </mxCell>
        <mxCell id="P6UPo_pjJBD-i2O_0os6-11" value="" style="endArrow=classic;html=1;rounded=0;entryX=0.498;entryY=0;entryDx=0;entryDy=0;entryPerimeter=0;exitX=0.514;exitY=0.986;exitDx=0;exitDy=0;exitPerimeter=0;" edge="1" parent="1" source="P6UPo_pjJBD-i2O_0os6-2" target="0AfO8lCKWgkxFzGc6HkS-7">
          <mxGeometry width="50" height="50" relative="1" as="geometry">
            <mxPoint x="350" y="410" as="sourcePoint" />
            <mxPoint x="400" y="360" as="targetPoint" />
          </mxGeometry>
        </mxCell>
        <mxCell id="NpsOpPFHIc2PompAE6YA-1" value="" style="group" vertex="1" connectable="0" parent="1">
          <mxGeometry x="240" y="550" width="70" height="74" as="geometry" />
        </mxCell>
        <mxCell id="NpsOpPFHIc2PompAE6YA-2" style="vsdxID=5;fillColor=none;gradientColor=none;shape=stencil(vVPLEoIgFP0aljgEVuPa6j+YRGUica6U9vdhUKk4LWzG3X0cOPdcOIilTclrgShpDOiLaGVmSsQOiFJZlQKksRFiR8TSXIMoQN+qzOU175F9dNX3/obOnSP9CUoeLktIFL8KJ4flcLZN8NhtRJiDwxsf7VwhQHjAhniCDvNONhi04UbqakSuOBQCWy6cK16MWk0rRB2U/XRKVgMlSRwl+1nyhWI+s0+Xs4KYgNvPtlBKuJvVniX4En+9yfxWVpDx2yc2+Bosl0o5fw77U0PakjMzOz4B);strokeColor=#ff5958;spacingTop=-3;spacingBottom=-3;spacingLeft=-3;spacingRight=-3;points=[];labelBackgroundColor=none;rounded=0;html=1;whiteSpace=wrap;" vertex="1" parent="NpsOpPFHIc2PompAE6YA-1">
          <mxGeometry width="70" height="74" as="geometry" />
        </mxCell>
        <mxCell id="NpsOpPFHIc2PompAE6YA-3" value="&lt;div style=&quot;&quot;&gt;&lt;font style=&quot;font-family: Arial; color: rgb(0, 0, 0); direction: ltr; letter-spacing: 0px; line-height: 120%; opacity: 1;&quot;&gt;&lt;font style=&quot;font-size: 13px;&quot;&gt;HAProxy&lt;/font&gt;&lt;br&gt;&lt;/font&gt;&lt;/div&gt;" style="verticalAlign=bottom;align=center;overflow=width;vsdxID=6;fillColor=none;gradientColor=none;strokeColor=none;spacingTop=-3;spacingBottom=-3;spacingLeft=-3;spacingRight=-3;points=[];labelBackgroundColor=none;rounded=0;html=1;whiteSpace=wrap;" vertex="1" parent="NpsOpPFHIc2PompAE6YA-1">
          <mxGeometry y="37" width="70" height="28" as="geometry" />
        </mxCell>
        <mxCell id="NpsOpPFHIc2PompAE6YA-4" value="" style="shape=image;verticalLabelPosition=bottom;verticalAlign=top;imageAspect=0;aspect=fixed;image=data:image/svg+xml,PHN2ZyB4bWxucz0iaHR0cDovL3d3dy53My5vcmcvMjAwMC9zdmciIHdpZHRoPSIzMiIgaGVpZ2h0PSIzMiIgdmlld0JveD0iMCAwIDMyIDMyIiBmaWxsPSJub25lIj4mI3hhOzxwYXRoIGQ9Ik0wIDE2QzAgNy4xNjM0NCA3LjE2MzQ0IDAgMTYgMFYwQzI0LjgzNjYgMCAzMiA3LjE2MzQ0IDMyIDE2VjE2QzMyIDI0LjgzNjYgMjQuODM2NiAzMiAxNiAzMlYzMkM3LjE2MzQ0IDMyIDAgMjQuODM2NiAwIDE2VjE2WiIgZmlsbD0iIzUyODJGRiIvPiYjeGE7PHBhdGggZD0iTTE3IDE3SDE5LjNDMTkuNyAxNy42IDIwLjMgMTggMjEgMThDMjIuMSAxOCAyMyAxNy4xIDIzIDE2QzIzIDE0LjkgMjIuMSAxNCAyMSAxNEMyMC4zIDE0IDE5LjYgMTQuNCAxOS4zIDE1SDE3VjExSDE5LjNDMTkuNyAxMS42IDIwLjMgMTIgMjEgMTJDMjIuMSAxMiAyMyAxMS4xIDIzIDEwQzIzIDguOSAyMi4xIDggMjEgOEMyMC4zIDggMTkuNiA4LjQgMTkuMyA5SDE3QzE1LjkgOSAxNSA5LjkgMTUgMTFWMTUuM0wxMCAxMlYxNUg3VjE3SDEwVjIwTDE1IDE2LjdWMjFDMTUgMjIuMSAxNS45IDIzIDE3IDIzSDE5LjNDMTkuNyAyMy42IDIwLjMgMjQgMjEgMjRDMjIuMSAyNCAyMyAyMy4xIDIzIDIyQzIzIDIwLjkgMjIuMSAyMCAyMSAyMEMyMC4zIDIwIDE5LjYgMjAuNCAxOS4zIDIxSDE3VjE3WiIgZmlsbD0id2hpdGUiLz4mI3hhOzwvc3ZnPg==;" vertex="1" parent="NpsOpPFHIc2PompAE6YA-1">
          <mxGeometry x="19" y="10" width="32" height="32" as="geometry" />
        </mxCell>
        <mxCell id="NpsOpPFHIc2PompAE6YA-5" value="" style="group" vertex="1" connectable="0" parent="1">
          <mxGeometry x="230" y="670" width="90" height="104" as="geometry" />
        </mxCell>
        <mxCell id="NpsOpPFHIc2PompAE6YA-6" style="vsdxID=5;fillColor=none;gradientColor=none;shape=stencil(vVPLEoIgFP0aljgEVuPa6j+YRGUica6U9vdhUKk4LWzG3X0cOPdcOIilTclrgShpDOiLaGVmSsQOiFJZlQKksRFiR8TSXIMoQN+qzOU175F9dNX3/obOnSP9CUoeLktIFL8KJ4flcLZN8NhtRJiDwxsf7VwhQHjAhniCDvNONhi04UbqakSuOBQCWy6cK16MWk0rRB2U/XRKVgMlSRwl+1nyhWI+s0+Xs4KYgNvPtlBKuJvVniX4En+9yfxWVpDx2yc2+Bosl0o5fw77U0PakjMzOz4B);strokeColor=#ff5958;spacingTop=-3;spacingBottom=-3;spacingLeft=-3;spacingRight=-3;points=[];labelBackgroundColor=none;rounded=0;html=1;whiteSpace=wrap;" vertex="1" parent="NpsOpPFHIc2PompAE6YA-5">
          <mxGeometry width="90" height="104" as="geometry" />
        </mxCell>
        <mxCell id="NpsOpPFHIc2PompAE6YA-7" value="&lt;div style=&quot;font-size: 13px;&quot;&gt;&lt;font style=&quot;font-family: Arial; color: rgb(0, 0, 0); direction: ltr; letter-spacing: 0px; line-height: 120%; opacity: 1; font-size: 13px;&quot;&gt;PostgreSQL&lt;br&gt;&lt;/font&gt;&lt;/div&gt;&lt;div style=&quot;font-size: 13px;&quot;&gt;&lt;font style=&quot;font-family: Arial; color: rgb(0, 0, 0); direction: ltr; letter-spacing: 0px; line-height: 120%; opacity: 1; font-size: 13px;&quot;&gt;(master)&lt;/font&gt;&lt;/div&gt;" style="verticalAlign=bottom;align=center;overflow=width;vsdxID=6;fillColor=none;gradientColor=none;strokeColor=none;spacingTop=-3;spacingBottom=-3;spacingLeft=-3;spacingRight=-3;points=[];labelBackgroundColor=none;rounded=0;html=1;whiteSpace=wrap;" vertex="1" parent="NpsOpPFHIc2PompAE6YA-5">
          <mxGeometry y="64" width="90" height="31" as="geometry" />
        </mxCell>
        <mxCell id="NpsOpPFHIc2PompAE6YA-8" value="" style="shape=image;verticalLabelPosition=bottom;verticalAlign=top;imageAspect=0;aspect=fixed;image=data:image/svg+xml,PHN2ZyB4bWxucz0iaHR0cDovL3d3dy53My5vcmcvMjAwMC9zdmciIHdpZHRoPSIzMiIgaGVpZ2h0PSIzMiIgdmlld0JveD0iMCAwIDMyIDMyIiBmaWxsPSJub25lIj4mI3hhOzxwYXRoIGQ9Ik0wIDE2QzAgNy4xNjM0NCA3LjE2MzQ0IDAgMTYgMFYwQzI0LjgzNjYgMCAzMiA3LjE2MzQ0IDMyIDE2VjE2QzMyIDI0LjgzNjYgMjQuODM2NiAzMiAxNiAzMlYzMkM3LjE2MzQ0IDMyIDAgMjQuODM2NiAwIDE2VjE2WiIgZmlsbD0iIzUyODJGRiIvPiYjeGE7PHBhdGggZmlsbC1ydWxlPSJldmVub2RkIiBjbGlwLXJ1bGU9ImV2ZW5vZGQiIGQ9Ik0xMyA4SDE4QzIxLjMgOCAyNCAxMC43IDI0IDE0VjI0SDIwVjIwSDIyVjE5SDE4LjZDMTUuNSAxOSAxMyAxNi41IDEzIDEzLjRWOFpNMTkgMTdIMjFWMTVIMTlWMTdaTTEyIDkuMDk5OThWMTMuNEMxMiAxNi44IDE0LjYgMTkuNyAxOCAyMC4xVjIwLjZDMTggMjIgMTUuOCAyMy4xIDEzIDIzLjFDMTAuMiAyMy4xIDggMjIgOCAyMC42VjExLjZDOCAxMC4zIDkuNyA5LjI5OTk4IDEyIDkuMDk5OThaIiBmaWxsPSJ3aGl0ZSIvPiYjeGE7PC9zdmc+;" vertex="1" parent="NpsOpPFHIc2PompAE6YA-5">
          <mxGeometry x="29" y="14" width="32" height="32" as="geometry" />
        </mxCell>
        <mxCell id="NpsOpPFHIc2PompAE6YA-9" value="" style="endArrow=classic;html=1;rounded=0;exitX=0.391;exitY=1;exitDx=0;exitDy=0;exitPerimeter=0;entryX=0.386;entryY=-0.027;entryDx=0;entryDy=0;entryPerimeter=0;" edge="1" parent="1" source="0AfO8lCKWgkxFzGc6HkS-7" target="NpsOpPFHIc2PompAE6YA-2">
          <mxGeometry width="50" height="50" relative="1" as="geometry">
            <mxPoint x="350" y="580" as="sourcePoint" />
            <mxPoint x="400" y="530" as="targetPoint" />
          </mxGeometry>
        </mxCell>
        <mxCell id="NpsOpPFHIc2PompAE6YA-10" value="" style="endArrow=classic;html=1;rounded=0;exitX=0.486;exitY=0.959;exitDx=0;exitDy=0;exitPerimeter=0;entryX=0.571;entryY=0;entryDx=0;entryDy=0;entryPerimeter=0;" edge="1" parent="1" source="0AfO8lCKWgkxFzGc6HkS-12" target="NpsOpPFHIc2PompAE6YA-2">
          <mxGeometry width="50" height="50" relative="1" as="geometry">
            <mxPoint x="350" y="580" as="sourcePoint" />
            <mxPoint x="400" y="530" as="targetPoint" />
          </mxGeometry>
        </mxCell>
        <mxCell id="NpsOpPFHIc2PompAE6YA-11" value="" style="endArrow=classic;html=1;rounded=0;exitX=0.543;exitY=1;exitDx=0;exitDy=0;exitPerimeter=0;entryX=0.556;entryY=0.01;entryDx=0;entryDy=0;entryPerimeter=0;" edge="1" parent="1" source="NpsOpPFHIc2PompAE6YA-2" target="NpsOpPFHIc2PompAE6YA-6">
          <mxGeometry width="50" height="50" relative="1" as="geometry">
            <mxPoint x="350" y="580" as="sourcePoint" />
            <mxPoint x="400" y="530" as="targetPoint" />
          </mxGeometry>
        </mxCell>
        <mxCell id="p70-gye4ZqWkjD2eKTXU-2" value="&lt;div style=&quot;&quot;&gt;&lt;font style=&quot;font-family: Arial; color: rgb(0, 0, 0); direction: ltr; letter-spacing: 0px; line-height: 120%; opacity: 1;&quot;&gt;&lt;font style=&quot;font-size: 13px;&quot;&gt;Зона доступности 2&lt;/font&gt;&lt;br&gt;&lt;/font&gt;&lt;/div&gt;" style="verticalAlign=bottom;align=center;overflow=width;vsdxID=5;fillColor=#e3ebff;gradientColor=none;shape=stencil(vVNBDsIgEHwNRwxCjHqu+g9iaUtEaBa09fdSwdpi9dBDb8vOwOwsGcQyW/FaIEqsA3MRjcxdhdgBUSp1JUA6XyF2RCwrDIgSzE3n4VzzjtlVV3PvXmjDPdLdoOQRTrvtavNqnAKXw9mDELkBIhDJaxrJZIy/YRLfbjFvpcVgHHfS6JGu4lAK7GVwoXg5gmwjRP3VjoMpqQcm9tPKs0z0Y6crWcBHqt0PN8tJspXFfmNKdpaBH8tYwML/VPjiE6dCKhXSOMTT+PlWiC47PgE=);strokeColor=none;spacingTop=-3;spacingBottom=-3;spacingLeft=-3;spacingRight=-3;points=[];labelBackgroundColor=none;rounded=0;html=1;whiteSpace=wrap;container=0;" vertex="1" parent="1">
          <mxGeometry x="500" y="254" width="450" height="546" as="geometry" />
        </mxCell>
        <mxCell id="p70-gye4ZqWkjD2eKTXU-3" style="vsdxID=5;fillColor=none;gradientColor=none;strokeColor=none;spacingTop=-3;spacingBottom=-3;spacingLeft=-3;spacingRight=-3;points=[];labelBackgroundColor=none;rounded=0;html=1;whiteSpace=wrap;" vertex="1" parent="1">
          <mxGeometry x="530" y="320" width="381" height="180" as="geometry" />
        </mxCell>
        <mxCell id="p70-gye4ZqWkjD2eKTXU-4" style="vsdxID=6;fillColor=none;gradientColor=none;shape=stencil(vVNdD4IgFP01PMpIms1ns//BEpVF4K6U9u/DoFJxPdjm2/04cO65cBDN2po1HMWkNaAvvBOFqRE9ojgWquYgjI0QzRHNSg28An1ThcsbNiCH6Krvww29O0eGEzF5uCwleP8qnByWwdk2wWMpTg8ODm88TlwhQHjAjniCPmK9aCPQhhmh1YRcMqh4ZLmiUrJq0mo7zpug7KeTQo2UpAkmdJF8pZjP7PPlbCAm4PazrZQS7mazZwm+xF9vsryVDWT89okNvgYrhZTOn+P+3JC25MxM8yc=);strokeColor=#5282ff;spacingTop=-3;spacingBottom=-3;spacingLeft=-3;spacingRight=-3;points=[];labelBackgroundColor=none;rounded=0;html=1;whiteSpace=wrap;" vertex="1" parent="p70-gye4ZqWkjD2eKTXU-3">
          <mxGeometry y="-40" width="381" height="220" as="geometry" />
        </mxCell>
        <mxCell id="p70-gye4ZqWkjD2eKTXU-5" value="&lt;div style=&quot;&quot;&gt;&lt;font style=&quot;font-size: 13px;&quot; face=&quot;Arial&quot;&gt;Kubernetes 2&lt;/font&gt;&lt;/div&gt;" style="verticalAlign=middle;align=center;overflow=width;vsdxID=7;fillColor=none;gradientColor=none;shape=stencil(nZBLDoAgDERP0z3SIyjew0SURgSD+Lu9kMZoXLhwN9O+tukAlrNpJg1SzDH4QW/URgNYgZTkjA4UkwJUgGXng+6DX1zLfmoymdXo17xh5zmRJ6Q42BWCfc2oJfdAr+Yv+AP9Cb7OJ3H/2JG1HNGz/84klThPVCc=);strokeColor=none;points=[];labelBackgroundColor=none;rounded=0;html=1;whiteSpace=wrap;" vertex="1" parent="p70-gye4ZqWkjD2eKTXU-3">
          <mxGeometry y="76" width="158.75" height="28" as="geometry" />
        </mxCell>
        <mxCell id="p70-gye4ZqWkjD2eKTXU-6" value="" style="shape=image;verticalLabelPosition=bottom;verticalAlign=top;imageAspect=0;aspect=fixed;image=data:image/svg+xml,PHN2ZyB4bWxucz0iaHR0cDovL3d3dy53My5vcmcvMjAwMC9zdmciIHdpZHRoPSIzMiIgaGVpZ2h0PSIzMiIgdmlld0JveD0iMCAwIDMyIDMyIiBmaWxsPSJub25lIj4mI3hhOzxwYXRoIGQ9Ik0wIDE2QzAgNy4xNjM0NCA3LjE2MzQ0IDAgMTYgMFYwQzI0LjgzNjYgMCAzMiA3LjE2MzQ0IDMyIDE2VjE2QzMyIDI0LjgzNjYgMjQuODM2NiAzMiAxNiAzMlYzMkM3LjE2MzQ0IDMyIDAgMjQuODM2NiAwIDE2VjE2WiIgZmlsbD0iIzUyODJGRiIvPiYjeGE7PHBhdGggZD0iTTExLjk5NSAyNEw3LjAwMDk4IDE3LjczOEw4Ljc4MTk4IDkuOTI3TDE2IDYuNDUzTDIzLjIxOCA5LjkyOEwyNC45OTkgMTcuNzM5TDIwLjAwNSAyNEgxMS45OTVaTTIwIDEzLjE5NkwxNS45OTkgMTAuODk5TDEyIDEzLjE5NlYxOC4xTDE2IDIwLjQwMUwyMCAxOC4xVjEzLjE5NlpNMTguNzggMTMuODk2SDE4Ljc4N0wxNiAxNS40OTlMMTMuMjE0IDEzLjg5NUgxMy4yMTlMMTUuOTk5IDEyLjI5OUwxOC43OCAxMy44OTZaIiBmaWxsPSJ3aGl0ZSIvPiYjeGE7PC9zdmc+;container=0;" vertex="1" parent="p70-gye4ZqWkjD2eKTXU-3">
          <mxGeometry x="46.861717171717174" y="38.14999999999998" width="27.69545454545455" height="27.69545454545455" as="geometry" />
        </mxCell>
        <mxCell id="p70-gye4ZqWkjD2eKTXU-7" value="" style="group" vertex="1" connectable="0" parent="p70-gye4ZqWkjD2eKTXU-3">
          <mxGeometry x="161" y="90" width="84.37" height="74" as="geometry" />
        </mxCell>
        <mxCell id="p70-gye4ZqWkjD2eKTXU-8" value="" style="shape=image;verticalLabelPosition=bottom;verticalAlign=top;imageAspect=0;aspect=fixed;image=data:image/svg+xml,PHN2ZyB4bWxucz0iaHR0cDovL3d3dy53My5vcmcvMjAwMC9zdmciIHdpZHRoPSIzMiIgaGVpZ2h0PSIzMiIgdmlld0JveD0iMCAwIDMyIDMyIiBmaWxsPSJub25lIj4mI3hhOzxwYXRoIGQ9Ik0wIDE2QzAgNy4xNjM0NCA3LjE2MzQ0IDAgMTYgMFYwQzI0LjgzNjYgMCAzMiA3LjE2MzQ0IDMyIDE2VjE2QzMyIDI0LjgzNjYgMjQuODM2NiAzMiAxNiAzMlYzMkM3LjE2MzQ0IDMyIDAgMjQuODM2NiAwIDE2VjE2WiIgZmlsbD0iIzUyODJGRiIvPiYjeGE7PHBhdGggZD0iTTExLjk5NSAyNEw3LjAwMDk4IDE3LjczOEw4Ljc4MTk4IDkuOTI3TDE2IDYuNDUzTDIzLjIxOCA5LjkyOEwyNC45OTkgMTcuNzM5TDIwLjAwNSAyNEgxMS45OTVaTTIwIDEzLjE5NkwxNS45OTkgMTAuODk5TDEyIDEzLjE5NlYxOC4xTDE2IDIwLjQwMUwyMCAxOC4xVjEzLjE5NlpNMTguNzggMTMuODk2SDE4Ljc4N0wxNiAxNS40OTlMMTMuMjE0IDEzLjg5NUgxMy4yMTlMMTUuOTk5IDEyLjI5OUwxOC43OCAxMy44OTZaIiBmaWxsPSJ3aGl0ZSIvPiYjeGE7PC9zdmc+;container=0;" vertex="1" parent="p70-gye4ZqWkjD2eKTXU-7">
          <mxGeometry x="28.788918888888897" y="7.710000000000008" width="17.715485564304466" height="17.715485564304466" as="geometry" />
        </mxCell>
        <mxCell id="p70-gye4ZqWkjD2eKTXU-9" style="vsdxID=5;fillColor=none;gradientColor=none;shape=stencil(vVPLEoIgFP0aljgEVuPa6j+YRGUica6U9vdhUKk4LWzG3X0cOPdcOIilTclrgShpDOiLaGVmSsQOiFJZlQKksRFiR8TSXIMoQN+qzOU175F9dNX3/obOnSP9CUoeLktIFL8KJ4flcLZN8NhtRJiDwxsf7VwhQHjAhniCDvNONhi04UbqakSuOBQCWy6cK16MWk0rRB2U/XRKVgMlSRwl+1nyhWI+s0+Xs4KYgNvPtlBKuJvVniX4En+9yfxWVpDx2yc2+Bosl0o5fw77U0PakjMzOz4B);strokeColor=#ff5958;spacingTop=-3;spacingBottom=-3;spacingLeft=-3;spacingRight=-3;points=[];labelBackgroundColor=none;rounded=0;html=1;whiteSpace=wrap;" vertex="1" parent="p70-gye4ZqWkjD2eKTXU-7">
          <mxGeometry width="84.37" height="74" as="geometry" />
        </mxCell>
        <mxCell id="p70-gye4ZqWkjD2eKTXU-10" value="&lt;div style=&quot;&quot;&gt;&lt;font style=&quot;font-family: Arial; color: rgb(0, 0, 0); direction: ltr; letter-spacing: 0px; line-height: 120%; opacity: 1; font-size: 13px;&quot;&gt;InsureTech 1&lt;/font&gt;&lt;/div&gt;" style="verticalAlign=bottom;align=center;overflow=width;vsdxID=6;fillColor=none;gradientColor=none;strokeColor=none;spacingTop=-3;spacingBottom=-3;spacingLeft=-3;spacingRight=-3;points=[];labelBackgroundColor=none;rounded=0;html=1;whiteSpace=wrap;" vertex="1" parent="p70-gye4ZqWkjD2eKTXU-7">
          <mxGeometry x="9.374444444444444" y="37" width="65.6211111111111" height="28" as="geometry" />
        </mxCell>
        <mxCell id="p70-gye4ZqWkjD2eKTXU-11" value="" style="group" vertex="1" connectable="0" parent="p70-gye4ZqWkjD2eKTXU-3">
          <mxGeometry x="281" y="90" width="84.37" height="74" as="geometry" />
        </mxCell>
        <mxCell id="p70-gye4ZqWkjD2eKTXU-12" value="" style="shape=image;verticalLabelPosition=bottom;verticalAlign=top;imageAspect=0;aspect=fixed;image=data:image/svg+xml,PHN2ZyB4bWxucz0iaHR0cDovL3d3dy53My5vcmcvMjAwMC9zdmciIHdpZHRoPSIzMiIgaGVpZ2h0PSIzMiIgdmlld0JveD0iMCAwIDMyIDMyIiBmaWxsPSJub25lIj4mI3hhOzxwYXRoIGQ9Ik0wIDE2QzAgNy4xNjM0NCA3LjE2MzQ0IDAgMTYgMFYwQzI0LjgzNjYgMCAzMiA3LjE2MzQ0IDMyIDE2VjE2QzMyIDI0LjgzNjYgMjQuODM2NiAzMiAxNiAzMlYzMkM3LjE2MzQ0IDMyIDAgMjQuODM2NiAwIDE2VjE2WiIgZmlsbD0iIzUyODJGRiIvPiYjeGE7PHBhdGggZD0iTTExLjk5NSAyNEw3LjAwMDk4IDE3LjczOEw4Ljc4MTk4IDkuOTI3TDE2IDYuNDUzTDIzLjIxOCA5LjkyOEwyNC45OTkgMTcuNzM5TDIwLjAwNSAyNEgxMS45OTVaTTIwIDEzLjE5NkwxNS45OTkgMTAuODk5TDEyIDEzLjE5NlYxOC4xTDE2IDIwLjQwMUwyMCAxOC4xVjEzLjE5NlpNMTguNzggMTMuODk2SDE4Ljc4N0wxNiAxNS40OTlMMTMuMjE0IDEzLjg5NUgxMy4yMTlMMTUuOTk5IDEyLjI5OUwxOC43OCAxMy44OTZaIiBmaWxsPSJ3aGl0ZSIvPiYjeGE7PC9zdmc+;container=0;" vertex="1" parent="p70-gye4ZqWkjD2eKTXU-11">
          <mxGeometry x="28.788918888888897" y="7.710000000000008" width="17.715485564304466" height="17.715485564304466" as="geometry" />
        </mxCell>
        <mxCell id="p70-gye4ZqWkjD2eKTXU-13" style="vsdxID=5;fillColor=none;gradientColor=none;shape=stencil(vVPLEoIgFP0aljgEVuPa6j+YRGUica6U9vdhUKk4LWzG3X0cOPdcOIilTclrgShpDOiLaGVmSsQOiFJZlQKksRFiR8TSXIMoQN+qzOU175F9dNX3/obOnSP9CUoeLktIFL8KJ4flcLZN8NhtRJiDwxsf7VwhQHjAhniCDvNONhi04UbqakSuOBQCWy6cK16MWk0rRB2U/XRKVgMlSRwl+1nyhWI+s0+Xs4KYgNvPtlBKuJvVniX4En+9yfxWVpDx2yc2+Bosl0o5fw77U0PakjMzOz4B);strokeColor=#ff5958;spacingTop=-3;spacingBottom=-3;spacingLeft=-3;spacingRight=-3;points=[];labelBackgroundColor=none;rounded=0;html=1;whiteSpace=wrap;" vertex="1" parent="p70-gye4ZqWkjD2eKTXU-11">
          <mxGeometry width="84.37" height="74" as="geometry" />
        </mxCell>
        <mxCell id="p70-gye4ZqWkjD2eKTXU-14" value="&lt;div style=&quot;&quot;&gt;&lt;font style=&quot;font-family: Arial; color: rgb(0, 0, 0); direction: ltr; letter-spacing: 0px; line-height: 120%; opacity: 1; font-size: 13px;&quot;&gt;InsureTech 2&lt;/font&gt;&lt;/div&gt;" style="verticalAlign=bottom;align=center;overflow=width;vsdxID=6;fillColor=none;gradientColor=none;strokeColor=none;spacingTop=-3;spacingBottom=-3;spacingLeft=-3;spacingRight=-3;points=[];labelBackgroundColor=none;rounded=0;html=1;whiteSpace=wrap;" vertex="1" parent="p70-gye4ZqWkjD2eKTXU-11">
          <mxGeometry x="9.374444444444444" y="37" width="65.6211111111111" height="28" as="geometry" />
        </mxCell>
        <mxCell id="p70-gye4ZqWkjD2eKTXU-15" value="" style="group" vertex="1" connectable="0" parent="1">
          <mxGeometry x="760" y="290" width="70" height="74" as="geometry" />
        </mxCell>
        <mxCell id="p70-gye4ZqWkjD2eKTXU-16" style="vsdxID=5;fillColor=none;gradientColor=none;shape=stencil(vVPLEoIgFP0aljgEVuPa6j+YRGUica6U9vdhUKk4LWzG3X0cOPdcOIilTclrgShpDOiLaGVmSsQOiFJZlQKksRFiR8TSXIMoQN+qzOU175F9dNX3/obOnSP9CUoeLktIFL8KJ4flcLZN8NhtRJiDwxsf7VwhQHjAhniCDvNONhi04UbqakSuOBQCWy6cK16MWk0rRB2U/XRKVgMlSRwl+1nyhWI+s0+Xs4KYgNvPtlBKuJvVniX4En+9yfxWVpDx2yc2+Bosl0o5fw77U0PakjMzOz4B);strokeColor=#ff5958;spacingTop=-3;spacingBottom=-3;spacingLeft=-3;spacingRight=-3;points=[];labelBackgroundColor=none;rounded=0;html=1;whiteSpace=wrap;" vertex="1" parent="p70-gye4ZqWkjD2eKTXU-15">
          <mxGeometry width="70" height="74" as="geometry" />
        </mxCell>
        <mxCell id="p70-gye4ZqWkjD2eKTXU-17" value="&lt;div style=&quot;&quot;&gt;&lt;font style=&quot;font-family: Arial; color: rgb(0, 0, 0); direction: ltr; letter-spacing: 0px; line-height: 120%; opacity: 1;&quot;&gt;&lt;font style=&quot;font-size: 13px;&quot;&gt;Load balancer&lt;/font&gt;&lt;br&gt;&lt;/font&gt;&lt;/div&gt;" style="verticalAlign=bottom;align=center;overflow=width;vsdxID=6;fillColor=none;gradientColor=none;strokeColor=none;spacingTop=-3;spacingBottom=-3;spacingLeft=-3;spacingRight=-3;points=[];labelBackgroundColor=none;rounded=0;html=1;whiteSpace=wrap;" vertex="1" parent="p70-gye4ZqWkjD2eKTXU-15">
          <mxGeometry y="37" width="70" height="28" as="geometry" />
        </mxCell>
        <mxCell id="p70-gye4ZqWkjD2eKTXU-18" value="" style="shape=image;verticalLabelPosition=bottom;verticalAlign=top;imageAspect=0;aspect=fixed;image=data:image/svg+xml,PHN2ZyB4bWxucz0iaHR0cDovL3d3dy53My5vcmcvMjAwMC9zdmciIHdpZHRoPSIzMiIgaGVpZ2h0PSIzMiIgdmlld0JveD0iMCAwIDMyIDMyIiBmaWxsPSJub25lIj4mI3hhOzxwYXRoIGQ9Ik0wIDE2QzAgNy4xNjM0NCA3LjE2MzQ0IDAgMTYgMFYwQzI0LjgzNjYgMCAzMiA3LjE2MzQ0IDMyIDE2VjE2QzMyIDI0LjgzNjYgMjQuODM2NiAzMiAxNiAzMlYzMkM3LjE2MzQ0IDMyIDAgMjQuODM2NiAwIDE2VjE2WiIgZmlsbD0iIzUyODJGRiIvPiYjeGE7PHBhdGggZD0iTTE3IDE3SDE5LjNDMTkuNyAxNy42IDIwLjMgMTggMjEgMThDMjIuMSAxOCAyMyAxNy4xIDIzIDE2QzIzIDE0LjkgMjIuMSAxNCAyMSAxNEMyMC4zIDE0IDE5LjYgMTQuNCAxOS4zIDE1SDE3VjExSDE5LjNDMTkuNyAxMS42IDIwLjMgMTIgMjEgMTJDMjIuMSAxMiAyMyAxMS4xIDIzIDEwQzIzIDguOSAyMi4xIDggMjEgOEMyMC4zIDggMTkuNiA4LjQgMTkuMyA5SDE3QzE1LjkgOSAxNSA5LjkgMTUgMTFWMTUuM0wxMCAxMlYxNUg3VjE3SDEwVjIwTDE1IDE2LjdWMjFDMTUgMjIuMSAxNS45IDIzIDE3IDIzSDE5LjNDMTkuNyAyMy42IDIwLjMgMjQgMjEgMjRDMjIuMSAyNCAyMyAyMy4xIDIzIDIyQzIzIDIwLjkgMjIuMSAyMCAyMSAyMEMyMC4zIDIwIDE5LjYgMjAuNCAxOS4zIDIxSDE3VjE3WiIgZmlsbD0id2hpdGUiLz4mI3hhOzwvc3ZnPg==;" vertex="1" parent="p70-gye4ZqWkjD2eKTXU-15">
          <mxGeometry x="19" y="5" width="32" height="32" as="geometry" />
        </mxCell>
        <mxCell id="p70-gye4ZqWkjD2eKTXU-19" value="" style="endArrow=classic;html=1;rounded=0;exitX=0.514;exitY=1.014;exitDx=0;exitDy=0;exitPerimeter=0;entryX=0.45;entryY=0.014;entryDx=0;entryDy=0;entryPerimeter=0;" edge="1" source="p70-gye4ZqWkjD2eKTXU-16" target="p70-gye4ZqWkjD2eKTXU-13" parent="1">
          <mxGeometry width="50" height="50" relative="1" as="geometry">
            <mxPoint x="870" y="410" as="sourcePoint" />
            <mxPoint x="920" y="360" as="targetPoint" />
          </mxGeometry>
        </mxCell>
        <mxCell id="p70-gye4ZqWkjD2eKTXU-20" value="" style="endArrow=classic;html=1;rounded=0;entryX=0.498;entryY=0;entryDx=0;entryDy=0;entryPerimeter=0;exitX=0.514;exitY=0.986;exitDx=0;exitDy=0;exitPerimeter=0;" edge="1" source="p70-gye4ZqWkjD2eKTXU-16" target="p70-gye4ZqWkjD2eKTXU-9" parent="1">
          <mxGeometry width="50" height="50" relative="1" as="geometry">
            <mxPoint x="870" y="410" as="sourcePoint" />
            <mxPoint x="920" y="360" as="targetPoint" />
          </mxGeometry>
        </mxCell>
        <mxCell id="p70-gye4ZqWkjD2eKTXU-21" value="" style="group" vertex="1" connectable="0" parent="1">
          <mxGeometry x="760" y="550" width="70" height="74" as="geometry" />
        </mxCell>
        <mxCell id="p70-gye4ZqWkjD2eKTXU-22" style="vsdxID=5;fillColor=none;gradientColor=none;shape=stencil(vVPLEoIgFP0aljgEVuPa6j+YRGUica6U9vdhUKk4LWzG3X0cOPdcOIilTclrgShpDOiLaGVmSsQOiFJZlQKksRFiR8TSXIMoQN+qzOU175F9dNX3/obOnSP9CUoeLktIFL8KJ4flcLZN8NhtRJiDwxsf7VwhQHjAhniCDvNONhi04UbqakSuOBQCWy6cK16MWk0rRB2U/XRKVgMlSRwl+1nyhWI+s0+Xs4KYgNvPtlBKuJvVniX4En+9yfxWVpDx2yc2+Bosl0o5fw77U0PakjMzOz4B);strokeColor=#ff5958;spacingTop=-3;spacingBottom=-3;spacingLeft=-3;spacingRight=-3;points=[];labelBackgroundColor=none;rounded=0;html=1;whiteSpace=wrap;" vertex="1" parent="p70-gye4ZqWkjD2eKTXU-21">
          <mxGeometry width="70" height="74" as="geometry" />
        </mxCell>
        <mxCell id="p70-gye4ZqWkjD2eKTXU-23" value="&lt;div style=&quot;&quot;&gt;&lt;font style=&quot;font-family: Arial; color: rgb(0, 0, 0); direction: ltr; letter-spacing: 0px; line-height: 120%; opacity: 1;&quot;&gt;&lt;font style=&quot;font-size: 13px;&quot;&gt;HAProxy&lt;/font&gt;&lt;br&gt;&lt;/font&gt;&lt;/div&gt;" style="verticalAlign=bottom;align=center;overflow=width;vsdxID=6;fillColor=none;gradientColor=none;strokeColor=none;spacingTop=-3;spacingBottom=-3;spacingLeft=-3;spacingRight=-3;points=[];labelBackgroundColor=none;rounded=0;html=1;whiteSpace=wrap;" vertex="1" parent="p70-gye4ZqWkjD2eKTXU-21">
          <mxGeometry y="37" width="70" height="28" as="geometry" />
        </mxCell>
        <mxCell id="p70-gye4ZqWkjD2eKTXU-24" value="" style="shape=image;verticalLabelPosition=bottom;verticalAlign=top;imageAspect=0;aspect=fixed;image=data:image/svg+xml,PHN2ZyB4bWxucz0iaHR0cDovL3d3dy53My5vcmcvMjAwMC9zdmciIHdpZHRoPSIzMiIgaGVpZ2h0PSIzMiIgdmlld0JveD0iMCAwIDMyIDMyIiBmaWxsPSJub25lIj4mI3hhOzxwYXRoIGQ9Ik0wIDE2QzAgNy4xNjM0NCA3LjE2MzQ0IDAgMTYgMFYwQzI0LjgzNjYgMCAzMiA3LjE2MzQ0IDMyIDE2VjE2QzMyIDI0LjgzNjYgMjQuODM2NiAzMiAxNiAzMlYzMkM3LjE2MzQ0IDMyIDAgMjQuODM2NiAwIDE2VjE2WiIgZmlsbD0iIzUyODJGRiIvPiYjeGE7PHBhdGggZD0iTTE3IDE3SDE5LjNDMTkuNyAxNy42IDIwLjMgMTggMjEgMThDMjIuMSAxOCAyMyAxNy4xIDIzIDE2QzIzIDE0LjkgMjIuMSAxNCAyMSAxNEMyMC4zIDE0IDE5LjYgMTQuNCAxOS4zIDE1SDE3VjExSDE5LjNDMTkuNyAxMS42IDIwLjMgMTIgMjEgMTJDMjIuMSAxMiAyMyAxMS4xIDIzIDEwQzIzIDguOSAyMi4xIDggMjEgOEMyMC4zIDggMTkuNiA4LjQgMTkuMyA5SDE3QzE1LjkgOSAxNSA5LjkgMTUgMTFWMTUuM0wxMCAxMlYxNUg3VjE3SDEwVjIwTDE1IDE2LjdWMjFDMTUgMjIuMSAxNS45IDIzIDE3IDIzSDE5LjNDMTkuNyAyMy42IDIwLjMgMjQgMjEgMjRDMjIuMSAyNCAyMyAyMy4xIDIzIDIyQzIzIDIwLjkgMjIuMSAyMCAyMSAyMEMyMC4zIDIwIDE5LjYgMjAuNCAxOS4zIDIxSDE3VjE3WiIgZmlsbD0id2hpdGUiLz4mI3hhOzwvc3ZnPg==;" vertex="1" parent="p70-gye4ZqWkjD2eKTXU-21">
          <mxGeometry x="19" y="10" width="32" height="32" as="geometry" />
        </mxCell>
        <mxCell id="p70-gye4ZqWkjD2eKTXU-25" value="" style="group" vertex="1" connectable="0" parent="1">
          <mxGeometry x="750" y="670" width="90" height="104" as="geometry" />
        </mxCell>
        <mxCell id="p70-gye4ZqWkjD2eKTXU-26" style="vsdxID=5;fillColor=none;gradientColor=none;shape=stencil(vVPLEoIgFP0aljgEVuPa6j+YRGUica6U9vdhUKk4LWzG3X0cOPdcOIilTclrgShpDOiLaGVmSsQOiFJZlQKksRFiR8TSXIMoQN+qzOU175F9dNX3/obOnSP9CUoeLktIFL8KJ4flcLZN8NhtRJiDwxsf7VwhQHjAhniCDvNONhi04UbqakSuOBQCWy6cK16MWk0rRB2U/XRKVgMlSRwl+1nyhWI+s0+Xs4KYgNvPtlBKuJvVniX4En+9yfxWVpDx2yc2+Bosl0o5fw77U0PakjMzOz4B);strokeColor=#ff5958;spacingTop=-3;spacingBottom=-3;spacingLeft=-3;spacingRight=-3;points=[];labelBackgroundColor=none;rounded=0;html=1;whiteSpace=wrap;" vertex="1" parent="p70-gye4ZqWkjD2eKTXU-25">
          <mxGeometry width="90" height="104" as="geometry" />
        </mxCell>
        <mxCell id="p70-gye4ZqWkjD2eKTXU-27" value="&lt;div style=&quot;font-size: 13px;&quot;&gt;&lt;font style=&quot;font-family: Arial; color: rgb(0, 0, 0); direction: ltr; letter-spacing: 0px; line-height: 120%; opacity: 1; font-size: 13px;&quot;&gt;PostgreSQL&lt;br&gt;&lt;/font&gt;&lt;/div&gt;&lt;div style=&quot;font-size: 13px;&quot;&gt;&lt;font style=&quot;font-family: Arial; color: rgb(0, 0, 0); direction: ltr; letter-spacing: 0px; line-height: 120%; opacity: 1; font-size: 13px;&quot;&gt;(master)&lt;/font&gt;&lt;/div&gt;" style="verticalAlign=bottom;align=center;overflow=width;vsdxID=6;fillColor=none;gradientColor=none;strokeColor=none;spacingTop=-3;spacingBottom=-3;spacingLeft=-3;spacingRight=-3;points=[];labelBackgroundColor=none;rounded=0;html=1;whiteSpace=wrap;" vertex="1" parent="p70-gye4ZqWkjD2eKTXU-25">
          <mxGeometry y="64" width="90" height="31" as="geometry" />
        </mxCell>
        <mxCell id="p70-gye4ZqWkjD2eKTXU-28" value="" style="shape=image;verticalLabelPosition=bottom;verticalAlign=top;imageAspect=0;aspect=fixed;image=data:image/svg+xml,PHN2ZyB4bWxucz0iaHR0cDovL3d3dy53My5vcmcvMjAwMC9zdmciIHdpZHRoPSIzMiIgaGVpZ2h0PSIzMiIgdmlld0JveD0iMCAwIDMyIDMyIiBmaWxsPSJub25lIj4mI3hhOzxwYXRoIGQ9Ik0wIDE2QzAgNy4xNjM0NCA3LjE2MzQ0IDAgMTYgMFYwQzI0LjgzNjYgMCAzMiA3LjE2MzQ0IDMyIDE2VjE2QzMyIDI0LjgzNjYgMjQuODM2NiAzMiAxNiAzMlYzMkM3LjE2MzQ0IDMyIDAgMjQuODM2NiAwIDE2VjE2WiIgZmlsbD0iIzUyODJGRiIvPiYjeGE7PHBhdGggZmlsbC1ydWxlPSJldmVub2RkIiBjbGlwLXJ1bGU9ImV2ZW5vZGQiIGQ9Ik0xMyA4SDE4QzIxLjMgOCAyNCAxMC43IDI0IDE0VjI0SDIwVjIwSDIyVjE5SDE4LjZDMTUuNSAxOSAxMyAxNi41IDEzIDEzLjRWOFpNMTkgMTdIMjFWMTVIMTlWMTdaTTEyIDkuMDk5OThWMTMuNEMxMiAxNi44IDE0LjYgMTkuNyAxOCAyMC4xVjIwLjZDMTggMjIgMTUuOCAyMy4xIDEzIDIzLjFDMTAuMiAyMy4xIDggMjIgOCAyMC42VjExLjZDOCAxMC4zIDkuNyA5LjI5OTk4IDEyIDkuMDk5OThaIiBmaWxsPSJ3aGl0ZSIvPiYjeGE7PC9zdmc+;" vertex="1" parent="p70-gye4ZqWkjD2eKTXU-25">
          <mxGeometry x="29" y="14" width="32" height="32" as="geometry" />
        </mxCell>
        <mxCell id="p70-gye4ZqWkjD2eKTXU-29" value="" style="endArrow=classic;html=1;rounded=0;exitX=0.391;exitY=1;exitDx=0;exitDy=0;exitPerimeter=0;entryX=0.386;entryY=-0.027;entryDx=0;entryDy=0;entryPerimeter=0;" edge="1" source="p70-gye4ZqWkjD2eKTXU-9" target="p70-gye4ZqWkjD2eKTXU-22" parent="1">
          <mxGeometry width="50" height="50" relative="1" as="geometry">
            <mxPoint x="870" y="580" as="sourcePoint" />
            <mxPoint x="920" y="530" as="targetPoint" />
          </mxGeometry>
        </mxCell>
        <mxCell id="p70-gye4ZqWkjD2eKTXU-30" value="" style="endArrow=classic;html=1;rounded=0;exitX=0.486;exitY=0.959;exitDx=0;exitDy=0;exitPerimeter=0;entryX=0.571;entryY=0;entryDx=0;entryDy=0;entryPerimeter=0;" edge="1" source="p70-gye4ZqWkjD2eKTXU-13" target="p70-gye4ZqWkjD2eKTXU-22" parent="1">
          <mxGeometry width="50" height="50" relative="1" as="geometry">
            <mxPoint x="870" y="580" as="sourcePoint" />
            <mxPoint x="920" y="530" as="targetPoint" />
          </mxGeometry>
        </mxCell>
        <mxCell id="p70-gye4ZqWkjD2eKTXU-31" value="" style="endArrow=classic;html=1;rounded=0;exitX=0.543;exitY=1;exitDx=0;exitDy=0;exitPerimeter=0;entryX=0.556;entryY=0.01;entryDx=0;entryDy=0;entryPerimeter=0;" edge="1" source="p70-gye4ZqWkjD2eKTXU-22" target="p70-gye4ZqWkjD2eKTXU-26" parent="1">
          <mxGeometry width="50" height="50" relative="1" as="geometry">
            <mxPoint x="870" y="580" as="sourcePoint" />
            <mxPoint x="920" y="530" as="targetPoint" />
          </mxGeometry>
        </mxCell>
        <mxCell id="_9NHzKhUsJ6qULNN973Y-1" value="" style="group" vertex="1" connectable="0" parent="1">
          <mxGeometry x="414" y="-50" width="100" height="104" as="geometry" />
        </mxCell>
        <mxCell id="_9NHzKhUsJ6qULNN973Y-2" style="vsdxID=5;fillColor=none;gradientColor=none;shape=stencil(vVPLEoIgFP0aljgEVuPa6j+YRGUica6U9vdhUKk4LWzG3X0cOPdcOIilTclrgShpDOiLaGVmSsQOiFJZlQKksRFiR8TSXIMoQN+qzOU175F9dNX3/obOnSP9CUoeLktIFL8KJ4flcLZN8NhtRJiDwxsf7VwhQHjAhniCDvNONhi04UbqakSuOBQCWy6cK16MWk0rRB2U/XRKVgMlSRwl+1nyhWI+s0+Xs4KYgNvPtlBKuJvVniX4En+9yfxWVpDx2yc2+Bosl0o5fw77U0PakjMzOz4B);strokeColor=#ff5958;spacingTop=-3;spacingBottom=-3;spacingLeft=-3;spacingRight=-3;points=[];labelBackgroundColor=none;rounded=0;html=1;whiteSpace=wrap;" vertex="1" parent="_9NHzKhUsJ6qULNN973Y-1">
          <mxGeometry width="100" height="104" as="geometry" />
        </mxCell>
        <mxCell id="_9NHzKhUsJ6qULNN973Y-3" value="" style="aspect=fixed;sketch=0;html=1;dashed=0;whitespace=wrap;verticalLabelPosition=bottom;verticalAlign=top;fillColor=#2875E2;strokeColor=#ffffff;points=[[0.005,0.63,0],[0.1,0.2,0],[0.9,0.2,0],[0.5,0,0],[0.995,0.63,0],[0.72,0.99,0],[0.5,1,0],[0.28,0.99,0]];shape=mxgraph.kubernetes.icon2;prIcon=group;container=0;" vertex="1" parent="_9NHzKhUsJ6qULNN973Y-1">
          <mxGeometry x="24" y="10" width="50" height="48" as="geometry" />
        </mxCell>
        <mxCell id="_9NHzKhUsJ6qULNN973Y-4" value="&lt;div style=&quot;font-size: 13px;&quot;&gt;&lt;font style=&quot;font-family: Arial; color: rgb(0, 0, 0); direction: ltr; letter-spacing: 0px; line-height: 120%; opacity: 1; font-size: 13px;&quot;&gt;Браузер&lt;/font&gt;&lt;/div&gt;&lt;div style=&quot;font-size: 13px;&quot;&gt;&lt;font style=&quot;font-family: Arial; color: rgb(0, 0, 0); direction: ltr; letter-spacing: 0px; line-height: 120%; opacity: 1; font-size: 13px;&quot;&gt;пользователя&lt;/font&gt;&lt;/div&gt;" style="verticalAlign=bottom;align=center;overflow=width;vsdxID=6;fillColor=none;gradientColor=none;strokeColor=none;spacingTop=-3;spacingBottom=-3;spacingLeft=-3;spacingRight=-3;points=[];labelBackgroundColor=none;rounded=0;html=1;whiteSpace=wrap;" vertex="1" parent="_9NHzKhUsJ6qULNN973Y-1">
          <mxGeometry x="8" y="67" width="82" height="28" as="geometry" />
        </mxCell>
        <mxCell id="_9NHzKhUsJ6qULNN973Y-5" value="" style="endArrow=classic;html=1;rounded=0;exitX=0.47;exitY=1.029;exitDx=0;exitDy=0;exitPerimeter=0;entryX=0.486;entryY=0.014;entryDx=0;entryDy=0;entryPerimeter=0;strokeColor=#00CC00;" edge="1" parent="1" source="_9NHzKhUsJ6qULNN973Y-2" target="P6UPo_pjJBD-i2O_0os6-2">
          <mxGeometry width="50" height="50" relative="1" as="geometry">
            <mxPoint x="470" y="200" as="sourcePoint" />
            <mxPoint x="520" y="150" as="targetPoint" />
          </mxGeometry>
        </mxCell>
        <mxCell id="3KZvc0B4AmzQiycvzSBE-18" value="Active failover" style="edgeLabel;html=1;align=center;verticalAlign=middle;resizable=0;points=[];" vertex="1" connectable="0" parent="_9NHzKhUsJ6qULNN973Y-5">
          <mxGeometry x="-0.5475" y="2" relative="1" as="geometry">
            <mxPoint as="offset" />
          </mxGeometry>
        </mxCell>
        <mxCell id="_9NHzKhUsJ6qULNN973Y-6" value="" style="endArrow=classic;html=1;rounded=0;exitX=0.45;exitY=0.981;exitDx=0;exitDy=0;exitPerimeter=0;entryX=0.314;entryY=0;entryDx=0;entryDy=0;entryPerimeter=0;strokeColor=#00CC00;" edge="1" parent="1" source="_9NHzKhUsJ6qULNN973Y-2" target="p70-gye4ZqWkjD2eKTXU-16">
          <mxGeometry width="50" height="50" relative="1" as="geometry">
            <mxPoint x="470" y="200" as="sourcePoint" />
            <mxPoint x="520" y="150" as="targetPoint" />
          </mxGeometry>
        </mxCell>
        <mxCell id="3KZvc0B4AmzQiycvzSBE-19" value="Active failover" style="edgeLabel;html=1;align=center;verticalAlign=middle;resizable=0;points=[];" vertex="1" connectable="0" parent="_9NHzKhUsJ6qULNN973Y-6">
          <mxGeometry x="-0.2711" y="2" relative="1" as="geometry">
            <mxPoint as="offset" />
          </mxGeometry>
        </mxCell>
        <mxCell id="3KZvc0B4AmzQiycvzSBE-1" value="" style="group" vertex="1" connectable="0" parent="1">
          <mxGeometry x="620" y="-40" width="90" height="80" as="geometry" />
        </mxCell>
        <mxCell id="3KZvc0B4AmzQiycvzSBE-2" value="" style="shape=image;verticalLabelPosition=bottom;verticalAlign=top;imageAspect=0;aspect=fixed;image=data:image/svg+xml,PHN2ZyB4bWxucz0iaHR0cDovL3d3dy53My5vcmcvMjAwMC9zdmciIGZpbGw9Im5vbmUiIHZpZXdCb3g9IjAgMCAzMiAzMiIgaGVpZ2h0PSIzMiIgd2lkdGg9IjMyIj4mI3hhOzxyZWN0IGZpbGw9IiM1MjgyRkYiIHJ4PSIxNiIgaGVpZ2h0PSIzMiIgd2lkdGg9IjMyIi8+JiN4YTs8cGF0aCBmaWxsPSJ3aGl0ZSIgZD0iTTggMjAuMDAyVjExSDEwLjE1QzExLjE3NSAxMSAxMS45MDcgMTEuMjI4IDEyLjM0MyAxMS42ODVDMTIuNzgxIDEyLjE0MyAxMyAxMi45MDcgMTMgMTMuOTc4VjE2LjQ5OEMxMy4wMDQgMTcuODUyIDEyLjgxMiAxOC43NzMgMTIuNDI1IDE5LjI2NEMxMi4wNCAxOS43NTQgMTEuMzExIDIwLjAwMSAxMC4yNCAyMC4wMDFMOCAyMC4wMDJaTTE0IDIwLjAwMlYxMUgxNkwxNy42OTIgMTcuNTk3VjExSDE5VjIwLjAwMUgxN0wxNS4zMSAxMy4zMzlWMjAuMDAxTDE0IDIwLjAwMlpNMjAuNDU1IDE5LjQxNUMyMC4xNTIgMTkuMDI0IDIwIDE4LjM4NiAyMCAxNy41MDRWMTcuMTYySDIxLjI4OFYxNy40MjJDMjEuMjgxIDE3Ljg0NCAyMS4zMzggMTguMTYgMjEuNDU4IDE4LjM3QzIxLjU3NiAxOC41ODEgMjEuNzU4IDE4LjY4NiAyMi4wMDEgMTguNjg2QzIyLjEwNzMgMTguNjkxNyAyMi4yMTMgMTguNjY4MSAyMi4zMDY4IDE4LjYxNzhDMjIuNDAwNiAxOC41Njc2IDIyLjQ3ODkgMTguNDkyNiAyMi41MzMgMTguNDAxQzIyLjY1MSAxOC4yMTEgMjIuNzA4IDE3LjkyNSAyMi43MDggMTcuNTQxQzIyLjcwOCAxNy4yNTYgMjIuNjM4IDE3LjAxMSAyMi40OTMgMTYuODAzQzIyLjM1MiAxNi41OTcgMjIuMTA0IDE2LjM3OCAyMS43NDggMTYuMTQ3QzIxLjEyOCAxNS43NDYgMjAuNjkzIDE1LjM1MyAyMC40NDcgMTQuOTYzQzIwLjE5OSAxNC41OCAyMC4wNzUgMTQuMTAzIDIwLjA3NSAxMy41MzNDMjAuMDc1IDEyLjY4NyAyMC4yNDEgMTIuMDUzIDIwLjU3MyAxMS42MzJDMjAuOTA3IDExLjIxMSAyMS40MDcgMTEgMjIuMDc1IDExQzIyLjc2MSAxMSAyMy4yNDUgMTEuMTk2IDIzLjUyOCAxMS41ODhDMjMuNzk1IDExLjk2IDIzLjkyNCAxMi41NTggMjMuOTIxIDEzLjM4NEwyMy45MjMgMTMuNTc2VjEzLjgzNkgyMi42MzVWMTMuNTc2QzIyLjY0MSAxMy4xMTQgMjIuNTk5IDEyLjc4OCAyMi41MDggMTIuNTk3QzIyLjQxOCAxMi40MDggMjIuMjYgMTIuMzEzIDIyLjAzNSAxMi4zMTNDMjEuOTM1NCAxMi4zMDc0IDIxLjgzNjEgMTIuMzI4OCAyMS43NDc3IDEyLjM3NTJDMjEuNjU5MyAxMi40MjE1IDIxLjU4NTEgMTIuNDkwOSAyMS41MzMgMTIuNTc2QzIxLjQyMSAxMi43NTIgMjEuMzY3IDEzLjAxNSAyMS4zNjcgMTMuMzY2QzIxLjM2NyAxMy42MzggMjEuNDMyIDEzLjg3MSAyMS41NjUgMTQuMDY2QzIxLjY5MyAxNC4yNiAyMS45MjMgMTQuNDYyIDIyLjI1MiAxNC42NzJDMjIuODk5IDE1LjA5NCAyMy4zNTIgMTUuNTA1IDIzLjYxMSAxNS45MDVDMjMuODcxIDE2LjMwNiAyNCAxNi43OTcgMjQgMTcuMzhDMjQgMTguMjU0IDIzLjgzMyAxOC45MSAyMy41MDEgMTkuMzQ1QzIzLjE2OCAxOS43ODEgMjIuNjY4IDE5Ljk5OSAyMiAxOS45OTlDMjEuMjcyIDE5Ljk5OSAyMC43NTYgMTkuODA0IDIwLjQ1NSAxOS40MTVaTTExLjEgMTguMjk1QzExLjI3NiAxOC4wNTggMTEuMzY1IDE3LjYwMiAxMS4zNjUgMTYuOTI2VjEzLjk1NEMxMS4zNjUgMTMuMzQ0IDExLjI2NyAxMi45MjUgMTEuMDY4IDEyLjY5NkMxMC44NzEgMTIuNDY2IDEwLjUwOCAxMi4zNTIgOS45OCAxMi4zNTJIOS42MzZWMTguNjQ4SDEwLjA2NkMxMC41NzcgMTguNjQ4IDEwLjkyMyAxOC41MyAxMS4xIDE4LjI5NlYxOC4yOTVaIi8+JiN4YTs8L3N2Zz4=;" vertex="1" parent="3KZvc0B4AmzQiycvzSBE-1">
          <mxGeometry x="29" y="7" width="32" height="32" as="geometry" />
        </mxCell>
        <mxCell id="3KZvc0B4AmzQiycvzSBE-3" style="vsdxID=5;fillColor=none;gradientColor=none;shape=stencil(vVPLEoIgFP0aljgEVuPa6j+YRGUica6U9vdhUKk4LWzG3X0cOPdcOIilTclrgShpDOiLaGVmSsQOiFJZlQKksRFiR8TSXIMoQN+qzOU175F9dNX3/obOnSP9CUoeLktIFL8KJ4flcLZN8NhtRJiDwxsf7VwhQHjAhniCDvNONhi04UbqakSuOBQCWy6cK16MWk0rRB2U/XRKVgMlSRwl+1nyhWI+s0+Xs4KYgNvPtlBKuJvVniX4En+9yfxWVpDx2yc2+Bosl0o5fw77U0PakjMzOz4B);strokeColor=#ff5958;spacingTop=-3;spacingBottom=-3;spacingLeft=-3;spacingRight=-3;points=[];labelBackgroundColor=none;rounded=0;html=1;whiteSpace=wrap;" vertex="1" parent="3KZvc0B4AmzQiycvzSBE-1">
          <mxGeometry width="90" height="80" as="geometry" />
        </mxCell>
        <mxCell id="3KZvc0B4AmzQiycvzSBE-4" value="&lt;div style=&quot;&quot;&gt;&lt;font style=&quot;font-family: Arial; color: rgb(0, 0, 0); direction: ltr; letter-spacing: 0px; line-height: 120%; opacity: 1;&quot;&gt;&lt;font style=&quot;font-size: 13px;&quot;&gt;GLSB&lt;/font&gt;&lt;br&gt;&lt;/font&gt;&lt;/div&gt;" style="verticalAlign=bottom;align=center;overflow=width;vsdxID=6;fillColor=none;gradientColor=none;strokeColor=none;spacingTop=-3;spacingBottom=-3;spacingLeft=-3;spacingRight=-3;points=[];labelBackgroundColor=none;rounded=0;html=1;whiteSpace=wrap;" vertex="1" parent="3KZvc0B4AmzQiycvzSBE-1">
          <mxGeometry x="14.5" y="42" width="61" height="28" as="geometry" />
        </mxCell>
        <mxCell id="3KZvc0B4AmzQiycvzSBE-5" value="" style="endArrow=classic;html=1;rounded=0;exitX=1.02;exitY=0.452;exitDx=0;exitDy=0;exitPerimeter=0;entryX=0.044;entryY=0.488;entryDx=0;entryDy=0;entryPerimeter=0;" edge="1" parent="1" source="_9NHzKhUsJ6qULNN973Y-2" target="3KZvc0B4AmzQiycvzSBE-3">
          <mxGeometry width="50" height="50" relative="1" as="geometry">
            <mxPoint x="470" y="240" as="sourcePoint" />
            <mxPoint x="520" y="190" as="targetPoint" />
          </mxGeometry>
        </mxCell>
        <mxCell id="3KZvc0B4AmzQiycvzSBE-6" value="" style="endArrow=classic;html=1;rounded=0;exitX=0.478;exitY=0.975;exitDx=0;exitDy=0;exitPerimeter=0;entryX=0.249;entryY=-0.005;entryDx=0;entryDy=0;entryPerimeter=0;strokeColor=#3333FF;" edge="1" parent="1" source="3KZvc0B4AmzQiycvzSBE-3" target="p70-gye4ZqWkjD2eKTXU-4">
          <mxGeometry width="50" height="50" relative="1" as="geometry">
            <mxPoint x="470" y="240" as="sourcePoint" />
            <mxPoint x="520" y="190" as="targetPoint" />
          </mxGeometry>
        </mxCell>
        <mxCell id="3KZvc0B4AmzQiycvzSBE-17" value="Health check" style="edgeLabel;html=1;align=center;verticalAlign=middle;resizable=0;points=[];" vertex="1" connectable="0" parent="3KZvc0B4AmzQiycvzSBE-6">
          <mxGeometry x="-0.4445" y="1" relative="1" as="geometry">
            <mxPoint as="offset" />
          </mxGeometry>
        </mxCell>
        <mxCell id="3KZvc0B4AmzQiycvzSBE-7" value="" style="endArrow=classic;html=1;rounded=0;exitX=0.444;exitY=0.95;exitDx=0;exitDy=0;exitPerimeter=0;entryX=0.417;entryY=0.014;entryDx=0;entryDy=0;entryPerimeter=0;strokeColor=#3333FF;" edge="1" parent="1" source="3KZvc0B4AmzQiycvzSBE-3" target="0AfO8lCKWgkxFzGc6HkS-2">
          <mxGeometry width="50" height="50" relative="1" as="geometry">
            <mxPoint x="470" y="240" as="sourcePoint" />
            <mxPoint x="520" y="190" as="targetPoint" />
          </mxGeometry>
        </mxCell>
        <mxCell id="3KZvc0B4AmzQiycvzSBE-16" value="Health check" style="edgeLabel;html=1;align=center;verticalAlign=middle;resizable=0;points=[];" vertex="1" connectable="0" parent="3KZvc0B4AmzQiycvzSBE-7">
          <mxGeometry x="-0.0955" relative="1" as="geometry">
            <mxPoint as="offset" />
          </mxGeometry>
        </mxCell>
        <mxCell id="3KZvc0B4AmzQiycvzSBE-8" value="" style="endArrow=classic;html=1;rounded=0;exitX=1.014;exitY=0.365;exitDx=0;exitDy=0;exitPerimeter=0;entryX=0.011;entryY=0.423;entryDx=0;entryDy=0;entryPerimeter=0;" edge="1" parent="1" source="NpsOpPFHIc2PompAE6YA-2" target="p70-gye4ZqWkjD2eKTXU-26">
          <mxGeometry width="50" height="50" relative="1" as="geometry">
            <mxPoint x="470" y="550" as="sourcePoint" />
            <mxPoint x="520" y="500" as="targetPoint" />
          </mxGeometry>
        </mxCell>
        <mxCell id="3KZvc0B4AmzQiycvzSBE-9" value="" style="endArrow=classic;html=1;rounded=0;exitX=0;exitY=0.446;exitDx=0;exitDy=0;exitPerimeter=0;entryX=1.044;entryY=0.49;entryDx=0;entryDy=0;entryPerimeter=0;" edge="1" parent="1" source="p70-gye4ZqWkjD2eKTXU-22" target="NpsOpPFHIc2PompAE6YA-6">
          <mxGeometry width="50" height="50" relative="1" as="geometry">
            <mxPoint x="470" y="550" as="sourcePoint" />
            <mxPoint x="520" y="500" as="targetPoint" />
          </mxGeometry>
        </mxCell>
        <mxCell id="3KZvc0B4AmzQiycvzSBE-10" value="" style="endArrow=classic;startArrow=classic;html=1;rounded=0;exitX=0.956;exitY=0.769;exitDx=0;exitDy=0;exitPerimeter=0;entryX=-0.022;entryY=0.731;entryDx=0;entryDy=0;entryPerimeter=0;" edge="1" parent="1" source="NpsOpPFHIc2PompAE6YA-6" target="p70-gye4ZqWkjD2eKTXU-26">
          <mxGeometry width="50" height="50" relative="1" as="geometry">
            <mxPoint x="470" y="550" as="sourcePoint" />
            <mxPoint x="520" y="500" as="targetPoint" />
          </mxGeometry>
        </mxCell>
        <mxCell id="3KZvc0B4AmzQiycvzSBE-11" value="Репликация" style="edgeLabel;html=1;align=center;verticalAlign=middle;resizable=0;points=[];" vertex="1" connectable="0" parent="3KZvc0B4AmzQiycvzSBE-10">
          <mxGeometry x="-0.2315" y="3" relative="1" as="geometry">
            <mxPoint as="offset" />
          </mxGeometry>
        </mxCell>
        <mxCell id="3KZvc0B4AmzQiycvzSBE-12" style="vsdxID=5;fillColor=none;gradientColor=none;strokeColor=none;spacingTop=-3;spacingBottom=-3;spacingLeft=-3;spacingRight=-3;points=[];labelBackgroundColor=none;rounded=0;html=1;whiteSpace=wrap;" vertex="1" parent="1">
          <mxGeometry x="-100" y="533" width="1040" height="247" as="geometry" />
        </mxCell>
        <mxCell id="3KZvc0B4AmzQiycvzSBE-13" style="vsdxID=6;fillColor=none;gradientColor=none;shape=stencil(vVPREoIgEPwaHnFQmtJnq/9gEpWJxDkp7e+DoEnDerAZ3467PZa9YxHNu5q1HCWk06DOvBeFrhHdoyQRTc1BaBMhekA0LxXwCtS1Kdy5ZRZpo4u62RsG10dsR0Lu7pSRaPNMHB2WwckUwWPjKKUODi98tHWJAOEBMfEEA2aD6DAozbRQzYRcMqg4Nly4lKyalLqe8zZI+9dJ0YyUZGkU72bJl4ohX4azgpiA279toZRwNqutJfgSf+1kfioryPjtExO8DVYKKZ0/x/VPQ5qUMzM9PAA=);strokeColor=#5282ff;spacingTop=-3;spacingBottom=-3;spacingLeft=-3;spacingRight=-3;points=[];labelBackgroundColor=none;rounded=0;html=1;whiteSpace=wrap;" vertex="1" parent="3KZvc0B4AmzQiycvzSBE-12">
          <mxGeometry width="1040" height="247" as="geometry" />
        </mxCell>
        <mxCell id="3KZvc0B4AmzQiycvzSBE-14" value="&lt;div style=&quot;&quot;&gt;&lt;font face=&quot;Arial&quot;&gt;&lt;span style=&quot;font-size: 22.58px;&quot;&gt;Patroni&lt;/span&gt;&lt;/font&gt;&lt;/div&gt;&lt;div style=&quot;&quot;&gt;&lt;font face=&quot;Arial&quot;&gt;&lt;span style=&quot;font-size: 22.58px;&quot;&gt;Cluster&lt;/span&gt;&lt;/font&gt;&lt;/div&gt;" style="verticalAlign=middle;align=center;overflow=width;vsdxID=7;fillColor=none;gradientColor=none;shape=stencil(nZBLDoAgDERP0z3SIyjew0SURgSD+Lu9kMZoXLhwN9O+tukAlrNpJg1SzDH4QW/URgNYgZTkjA4UkwJUgGXng+6DX1zLfmoymdXo17xh5zmRJ6Q42BWCfc2oJfdAr+Yv+AP9Cb7OJ3H/2JG1HNGz/84klThPVCc=);strokeColor=none;points=[];labelBackgroundColor=none;rounded=0;html=1;whiteSpace=wrap;" vertex="1" parent="3KZvc0B4AmzQiycvzSBE-12">
          <mxGeometry x="20" y="160" width="214" height="65" as="geometry" />
        </mxCell>
        <mxCell id="3KZvc0B4AmzQiycvzSBE-15" value="" style="shape=image;verticalLabelPosition=bottom;verticalAlign=top;imageAspect=0;aspect=fixed;image=data:image/svg+xml,PHN2ZyB4bWxucz0iaHR0cDovL3d3dy53My5vcmcvMjAwMC9zdmciIHdpZHRoPSIzMiIgaGVpZ2h0PSIzMiIgdmlld0JveD0iMCAwIDMyIDMyIiBmaWxsPSJub25lIj4mI3hhOzxwYXRoIGQ9Ik0wIDE2QzAgNy4xNjM0NCA3LjE2MzQ0IDAgMTYgMFYwQzI0LjgzNjYgMCAzMiA3LjE2MzQ0IDMyIDE2VjE2QzMyIDI0LjgzNjYgMjQuODM2NiAzMiAxNiAzMlYzMkM3LjE2MzQ0IDMyIDAgMjQuODM2NiAwIDE2VjE2WiIgZmlsbD0iIzUyODJGRiIvPiYjeGE7PHBhdGggZmlsbC1ydWxlPSJldmVub2RkIiBjbGlwLXJ1bGU9ImV2ZW5vZGQiIGQ9Ik0xMyA4SDE4QzIxLjMgOCAyNCAxMC43IDI0IDE0VjI0SDIwVjIwSDIyVjE5SDE4LjZDMTUuNSAxOSAxMyAxNi41IDEzIDEzLjRWOFpNMTkgMTdIMjFWMTVIMTlWMTdaTTEyIDkuMDk5OThWMTMuNEMxMiAxNi44IDE0LjYgMTkuNyAxOCAyMC4xVjIwLjZDMTggMjIgMTUuOCAyMy4xIDEzIDIzLjFDMTAuMiAyMy4xIDggMjIgOCAyMC42VjExLjZDOCAxMC4zIDkuNyA5LjI5OTk4IDEyIDkuMDk5OThaIiBmaWxsPSJ3aGl0ZSIvPiYjeGE7PC9zdmc+;" vertex="1" parent="3KZvc0B4AmzQiycvzSBE-12">
          <mxGeometry x="30" y="167.5" width="50" height="50" as="geometry" />
        </mxCell>
      </root>
    </mxGraphModel>
  </diagram>
</mxfile>
